Title                            : Harry Potter and the Deathly Hallows: Part 1
Year                             : 2010
Genre                            : Adventure | Family | Fantasy
iMDB URL                         : http://www.imdb.com/title/tt0926084/

Complete name                    : Harry.Potter.and.the.Deathly.Hallows.Part.1.2010.BRRIP.720P.H264-ZEKTORM.mp4
Format                           : MPEG-4
Format profile                   : Base Media
Codec ID                         : isom
File size                        : 2.83 GiB
Duration                         : 2h 25mn
Overall bit rate                 : 2778 Kbps
Subtitles                        : English (Format: srt)

Video
ID                               : 1
Format                           : AVC
Format/Info                      : Advanced Video Codec
Format profile                   : High@L4.0
Format settings, CABAC           : Yes
Format settings, ReFrames        : 12 frames
Codec ID                         : avc1
Codec ID/Info                    : Advanced Video Coding
Duration                         : 2h 25mn
Bit rate mode                    : Variable
Bit rate                         : 2558 Kbps
Width                            : 1280 pixels
Height                           : 528 pixels
Display aspect ratio             : 2.424
Frame rate mode                  : Constant
Frame rate                       : 23.976 fps
Resolution                       : 24 bits
Colorimetry                      : 4:2:0
Scan type                        : Progressive
Bits/(Pixel*Frame)               : 0.158
Stream size                      : 2.61 GiB (92%)
Title                            : Video
Writing library                  : x264

Audio
ID                               : 2
Format                           : AAC
Format/Info                      : Advanced Audio Codec
Format version                   : Version 4
Format profile                   : LC
Format settings, SBR             : Yes
Format settings, PS              : No
Codec ID                         : 40
Duration                         : 2h 25mn
Bit rate mode                    : Variable
Bit rate                         : 216 Kbps
Maximum bit rate                 : 278 Kbps
Channel(s)                       : 6 channels
Channel positions                : Front: L C R, Rear: L R, LFE
Sampling rate                    : 48.0 KHz
Resolution                       : 16 bits
Stream size                      : 226 MiB (8%)
Title                            : English
Language                         : English


Screenshots:
 
http://img16.imageshack.us/img16/2352/snaphpdh1.png
 
http://img859.imageshack.us/img859/2351/snaphpdh2.png
 
http://img822.imageshack.us/img822/8706/snaphpdh3.png
 
http://img857.imageshack.us/img857/33/snaphpdh4.png
